<svg width="31" height="31" viewBox="0 0 31 31" fill="none" xmlns="http://www.w3.org/2000/svg">
<g clip-path="url(#clip0_109_8)">
<path d="M16.5 10C14.76 10 13.09 10.81 12 12.09C10.91 10.81 9.24 10 7.5 10C4.42 10 2 12.42 2 15.5C2 19.28 5.4 22.36 10.55 27.04L12 28.35L13.45 27.03C18.6 22.36 22 19.28 22 15.5C22 12.42 19.58 10 16.5 10ZM12.1 25.55L12 25.65L11.9 25.55C7.14 21.24 4 18.39 4 15.5C4 13.5 5.5 12 7.5 12C9.04 12 10.54 12.99 11.07 14.36H12.94C13.46 12.99 14.96 12 16.5 12C18.5 12 20 13.5 20 15.5C20 18.39 16.86 21.24 12.1 25.55Z" fill="#2A2A2A"/>
</g>
<rect x="15.5" y="0.5" width="15" height="15" rx="7.5" fill="#7FAD39"/>
<path d="M25.2794 5.44C25.2794 5.77333 25.2094 6.06 25.0694 6.3C24.9294 6.54 24.7427 6.74 24.5094 6.9C24.276 7.05333 24.0127 7.16667 23.7194 7.24V7.27C24.2927 7.33667 24.7294 7.51 25.0294 7.79C25.336 8.07 25.4894 8.45333 25.4894 8.94C25.4894 9.34 25.386 9.70667 25.1794 10.04C24.9727 10.3667 24.6527 10.6267 24.2194 10.82C23.7927 11.0067 23.2394 11.1 22.5594 11.1C22.1394 11.1 21.7627 11.0667 21.4294 11C21.096 10.9333 20.776 10.8367 20.4694 10.71V9.28C20.7827 9.44 21.1027 9.56 21.4294 9.64C21.7627 9.71333 22.0694 9.75 22.3494 9.75C22.856 9.75 23.206 9.67 23.3994 9.51C23.5994 9.35 23.6994 9.12333 23.6994 8.83C23.6994 8.65 23.6527 8.49667 23.5594 8.37C23.466 8.24333 23.3027 8.14667 23.0694 8.08C22.836 8.01333 22.5027 7.98 22.0694 7.98H21.5794V6.69H22.0794C22.486 6.69 22.7994 6.65333 23.0194 6.58C23.246 6.50667 23.4027 6.40667 23.4894 6.28C23.576 6.14667 23.6194 5.99667 23.6194 5.83C23.6194 5.60333 23.5427 5.43 23.3894 5.31C23.236 5.19 23.006 5.13 22.6994 5.13C22.4794 5.13 22.276 5.16 22.0894 5.22C21.9027 5.28 21.736 5.34667 21.5894 5.42C21.4427 5.49333 21.3227 5.56 21.2294 5.62L20.4794 4.47C20.6727 4.33667 20.8827 4.21667 21.1094 4.11C21.3427 3.99667 21.6027 3.91 21.8894 3.85C22.1827 3.79 22.5194 3.76 22.8994 3.76C23.6327 3.76 24.2127 3.91 24.6394 4.21C25.066 4.50333 25.2794 4.91333 25.2794 5.44Z" fill="white"/>
<rect x="15.5" y="0.5" width="15" height="15" rx="7.5" stroke="white"/>
<defs>
<clipPath id="clip0_109_8">
<rect width="24" height="24" fill="white" transform="translate(0 7)"/>
</clipPath>
</defs>
</svg>
